<?xml version="1.0" encoding="UTF-8"?>
<svg id="Layer_1" xmlns="http://www.w3.org/2000/svg" version="1.1" viewBox="0 0 484.2 501.2">
  <!-- Generator: Adobe Illustrator 29.2.1, SVG Export Plug-In . SVG Version: 2.1.0 Build 116)  -->
  <defs>
    <style>
      .st0 {
        fill: #f1f3c2;
      }

      .st1 {
        fill: #5bc5eb;
      }
    </style>
  </defs>
  <path class="st1" d="M383.8,248.4c6,6.4,6.7,17.8.4,24.2-119.8,77.2-240.7,153-361.8,228.2-9,1.7-18.9-1.8-21.2-11.3C-1.3,339.6.9,189.4.1,39.5c-.3-15.8,15.4-23.7,28.3-15.3l355.4,224.1h0Z"/>
  <path class="st0" d="M163.7,0c.6.3.6.7,0,1V0Z"/>
  <path class="st0" d="M483.7,0c.6.3.6.7,0,1V0Z"/>
  <path class="st0" d="M483.7,320c.6.3.6.7,0,1v-1Z"/>
</svg>